<svg version="1" xmlns="http://www.w3.org/2000/svg" width="524" height="524" viewBox="0 0 393.000000 393.000000"><path d="M103.8 20c-4.8 1-10.4 2.4-12.5 3-5 1.6-16.6 6.9-17.3 7.9-.3.5-2 1.6-3.9 2.6-4.7 2.3-16.8 14.7-21.7 22-7.2 10.8-12 22.7-15.3 38-1.9 8.9-2.3 17.6-2.3 44.8 0 24.1.2 27 1.8 28.8 1.7 1.9 4.9 1.9 164.4 1.9 138.1 0 162.9-.2 164.5-1.4 1.8-1.3 2-2.9 2-24 0-20.3-.2-22.7-1.8-24.3-1.6-1.7-6-1.8-70.7-1.8h-69l-.1-7c0-3.9-.2-7.7-.3-8.5-.2-.8-.6-3.5-.9-6-5.3-39.4-29.6-66.3-68.2-75.2-12.9-2.9-36.8-3.4-48.7-.8zm33.4 50.5c8.2 1.1 19 6 24.1 10.9 7.5 7.3 11.7 18.5 11.7 31v5.1h-46.7c-46.1 0-46.8-.1-46.7-2 1-20.6 6.5-32.7 17.9-39.7 5.3-3.2 9.9-4.8 16-5.5 2.8-.3 5.1-.6 5.3-.8.4-.4 13.1.3 18.4 1zM33.8 215.7c-.9.2-2 1.3-2.4 2.5-.3 1.1-.6 11.7-.6 23.5 0 18.5.3 21.8 1.7 23.2 1.4 1.5 13 1.6 129.3 1.7 136.5 0 133.3-.1 143.2 5 9.2 4.6 14 11.8 14 20.9 0 12.5-8.9 20.7-25.5 23.6-4.6.8-44.1 1.2-133 1.3-117.2.1-126.6.2-128.1 1.8-1.5 1.5-1.7 4.3-1.6 24 .1 21.7.2 22.4 2.3 24.1 2.1 1.7 8.5 1.8 131.3 1.4 71-.1 130.1-.6 131.2-.9 1.2-.4 3.9-.9 6-1.2 27.3-4.3 53.7-25.5 61.8-49.7 3.4-10.4 4.3-16.4 4.1-27.1-.4-15.6-5.9-31.2-15-42.3-13.1-16.1-27.5-24.9-49-29.8-8.8-2.1-11.2-2.1-138.5-2.3-71.2-.1-130.3 0-131.2.3z"/></svg>